<svg width="335" height="201" viewBox="0 0 335 201" fill="none" xmlns="http://www.w3.org/2000/svg">
<g clip-path="url(#clip0_18_79)">
<path d="M256.484 198.018C252.195 194.394 249.59 188.669 250.273 183.096C250.956 177.523 255.188 172.399 260.677 171.216C266.166 170.032 272.423 173.308 274.09 178.67C275.007 168.333 276.064 157.562 281.561 148.759C286.537 140.788 295.156 135.084 304.498 134.064C313.839 133.043 323.675 136.897 329.501 144.27C335.327 151.643 336.753 162.362 332.673 170.827C329.667 177.063 324.129 181.704 318.327 185.48C299.578 197.577 277.09 202.496 255.003 199.333L256.484 198.018Z" fill="#F2F2F2"/>
<path d="M320.263 137.111C312.555 143.389 305.484 150.411 299.152 158.074C289.242 170.027 281.223 183.427 275.374 197.81C274.946 198.859 276.649 199.316 277.073 198.278C286.643 174.904 301.921 154.302 321.509 138.357C322.389 137.64 321.135 136.4 320.263 137.111Z" fill="white"/>
<path d="M107.842 197.034C113.733 192.056 117.311 184.193 116.373 176.538C115.434 168.883 109.622 161.846 102.083 160.22C94.5442 158.594 85.9502 163.094 83.6604 170.459C82.4002 156.26 80.948 141.467 73.3992 129.376C66.564 118.427 54.7253 110.593 41.8947 109.192C29.0642 107.79 15.5553 113.084 7.55331 123.211C-0.448629 133.338 -2.40787 148.06 3.19648 159.687C7.32501 168.252 14.9312 174.626 22.9006 179.812C48.3258 196.356 79.8657 203.256 109.876 198.839" fill="#F2F2F2"/>
<path d="M20.2412 113.377C30.828 122 40.5402 131.644 49.2375 142.17C57.9361 152.685 65.5943 164.02 72.1046 176.013C75.7435 182.741 79.0124 189.663 81.8967 196.747C82.4848 198.188 80.1447 198.816 79.5632 197.391C74.4543 184.901 68.1336 172.942 60.6919 161.685C53.2862 150.47 44.8101 139.998 35.3825 130.419C30.0503 125.004 24.4242 119.886 18.53 115.088C17.3218 114.105 19.043 112.401 20.2412 113.377L20.2412 113.377Z" fill="white"/>
<path d="M240.468 199.845H99.9224V55.6408C99.9224 24.9603 124.883 0 155.563 0H184.828C215.508 0 240.468 24.9603 240.468 55.6408V199.845Z" fill="#F2F2F2"/>
<path d="M211.204 199.845H99.9224V55.6408C99.8917 43.8848 103.614 32.4258 110.548 22.9324C110.804 22.584 111.059 22.2401 111.322 21.9C114.676 17.5011 118.667 13.6271 123.164 10.4058C123.418 10.221 123.673 10.0394 123.932 9.85773C127.695 7.25374 131.765 5.12504 136.05 3.52006C136.305 3.42361 136.564 3.32697 136.823 3.23427C140.699 1.85118 144.716 0.903761 148.802 0.409522C149.055 0.374924 149.315 0.347851 149.575 0.320778C153.556 -0.104892 157.571 -0.104892 161.552 0.320778C161.812 0.347851 162.072 0.374921 162.328 0.409892C166.412 0.904164 170.429 1.85146 174.303 3.23429C174.562 3.32699 174.822 3.42362 175.077 3.52026C179.309 5.10499 183.332 7.20193 187.055 9.76429C187.313 9.94197 187.572 10.1236 187.827 10.3052C190.348 12.1045 192.715 14.109 194.906 16.2982C196.662 18.0543 198.299 19.9261 199.805 21.9011C200.068 22.2401 200.323 22.584 200.578 22.9318C207.512 32.4254 211.235 43.8845 211.204 55.6408V199.845Z" fill="#CCCCCC"/>
<path d="M202.155 135.348C205.558 135.348 208.316 132.589 208.316 129.187C208.316 125.784 205.558 123.026 202.155 123.026C198.753 123.026 195.994 125.784 195.994 129.187C195.994 132.589 198.753 135.348 202.155 135.348Z" fill="#1989F1"/>
<path d="M228.955 195.526H224.234L221.988 177.317L228.956 177.317L228.955 195.526Z" fill="#FFB8B8"/>
<path d="M220.862 194.177H229.966V199.909H215.13C215.13 199.156 215.278 198.411 215.566 197.715C215.854 197.02 216.276 196.388 216.809 195.856C217.341 195.323 217.973 194.901 218.668 194.613C219.364 194.325 220.109 194.177 220.862 194.177Z" fill="#2F2E41"/>
<path d="M252.443 195.526H247.722L245.476 177.317L252.444 177.317L252.443 195.526Z" fill="#FFB8B8"/>
<path d="M244.35 194.177H253.455V199.909H238.618C238.618 199.156 238.766 198.411 239.054 197.715C239.343 197.02 239.765 196.388 240.297 195.856C240.829 195.323 241.461 194.901 242.157 194.613C242.852 194.325 243.598 194.177 244.35 194.177Z" fill="#2F2E41"/>
<path d="M205.273 130.407C204.934 129.907 204.708 129.338 204.612 128.741C204.516 128.144 204.552 127.533 204.717 126.952C204.883 126.37 205.174 125.832 205.57 125.375C205.966 124.918 206.458 124.553 207.01 124.307L223.058 80.0765L230.954 84.3859L212.631 126.654C212.984 127.609 212.974 128.66 212.603 129.609C212.232 130.557 211.526 131.336 210.619 131.799C209.712 132.261 208.667 132.375 207.682 132.119C206.697 131.862 205.84 131.253 205.273 130.407Z" fill="#FFB8B8"/>
<path d="M250.032 138.718C249.507 138.418 249.055 138.005 248.707 137.511C248.359 137.016 248.123 136.452 248.017 135.856C247.911 135.261 247.937 134.65 248.092 134.065C248.248 133.481 248.53 132.938 248.918 132.474L243.947 85.6859L252.933 86.0965L254.999 132.119C255.735 132.823 256.187 133.772 256.269 134.787C256.352 135.801 256.059 136.811 255.447 137.625C254.835 138.438 253.945 138.999 252.947 139.2C251.949 139.402 250.912 139.23 250.032 138.718Z" fill="#FFB8B8"/>
<path d="M235.696 71.8839C240.919 71.8839 245.153 67.6496 245.153 62.4265C245.153 57.2033 240.919 52.9691 235.696 52.9691C230.473 52.9691 226.239 57.2033 226.239 62.4265C226.239 67.6496 230.473 71.8839 235.696 71.8839Z" fill="#FFB8B8"/>
<path d="M249.971 128.077H221.459L221.493 127.855C221.545 127.524 226.575 94.5714 222.865 83.791C222.493 82.7316 222.525 81.5719 222.957 80.5352C223.388 79.4985 224.188 78.658 225.202 78.1755H225.202C230.505 75.6783 240.684 72.6033 249.276 80.0658C250.54 81.182 251.527 82.5771 252.16 84.1406C252.792 85.7042 253.052 87.3934 252.918 89.0746L249.971 128.077Z" fill="#1989F1"/>
<path d="M226.935 99.4413L214.099 96.8371L220.116 82.5785C220.476 81.1975 221.369 80.0156 222.599 79.2922C223.83 78.5688 225.296 78.3629 226.678 78.7197C228.06 79.0764 229.244 79.9667 229.971 81.1952C230.697 82.4237 230.906 83.8902 230.553 85.2729L226.935 99.4413Z" fill="#1989F1"/>
<path d="M243.376 104.277L242.604 86.5866C242.019 83.2612 243.922 80.1175 246.85 79.6037C249.779 79.0917 252.638 81.3981 253.226 84.748L256.127 101.278L243.376 104.277Z" fill="#1989F1"/>
<path d="M249.023 125.959C253.611 143.432 254.111 165.647 252.873 189.879L246.713 189.109L235.546 142.902L229.385 189.879L222.454 189.494C220.383 164.069 218.367 142.242 221.684 127.885L249.023 125.959Z" fill="#2F2E41"/>
<path d="M241.927 69.7355C240.163 71.6149 236.886 70.606 236.657 68.0385C236.639 67.8391 236.64 67.6385 236.66 67.4394C236.779 66.3021 237.436 65.2696 237.279 64.0688C237.243 63.7699 237.132 63.4851 236.955 63.2413C235.549 61.3587 232.249 64.0834 230.922 62.3791C230.109 61.334 231.065 59.6886 230.441 58.5206C229.617 56.979 227.176 57.7395 225.645 56.8952C223.942 55.9559 224.044 53.343 225.165 51.7537C226.532 49.8155 228.929 48.7812 231.296 48.6322C233.664 48.4831 236.015 49.123 238.225 49.9843C240.736 50.9628 243.226 52.3152 244.771 54.5231C246.65 57.2082 246.831 60.818 245.891 63.9577C245.319 65.8676 243.368 68.2008 241.927 69.7355Z" fill="#2F2E41"/>
<path d="M180.592 158.066H130.534C129.875 158.07 129.242 157.812 128.772 157.348C128.303 156.885 128.037 156.255 128.032 155.596V43.8639C128.037 43.2047 128.303 42.5744 128.772 42.1113C129.242 41.6482 129.875 41.3901 130.534 41.3937H180.592C181.251 41.3901 181.885 41.6482 182.354 42.1113C182.823 42.5744 183.09 43.2047 183.095 43.8639V155.596C183.09 156.255 182.823 156.885 182.354 157.348C181.885 157.812 181.251 158.07 180.592 158.066Z" fill="white"/>
<path d="M183.095 77.5466H128.032V78.3167H183.095V77.5466Z" fill="#CCCCCC"/>
<path d="M183.287 121.486H128.224V122.256H183.287V121.486Z" fill="#CCCCCC"/>
<path d="M146.129 41.3937H145.359V158.451H146.129V41.3937Z" fill="#CCCCCC"/>
<path d="M165.382 41.3937H164.612V158.451H165.382V41.3937Z" fill="#CCCCCC"/>
</g>
<defs>
<clipPath id="clip0_18_79">
<rect width="335" height="200.283" fill="white"/>
</clipPath>
</defs>
</svg>
